<svg width="108" height="28" fill="none" xmlns="http://www.w3.org/2000/svg"><path fill-rule="evenodd" clip-rule="evenodd" d="M106 14a12 12 0 1 1-24 0 12 12 0 0 1 24 0Zm-9.53-5.96C95.83 8 95.63 8 94 8c-1.63 0-1.83 0-2.47.04-.64.03-1.08.13-1.46.28-.4.15-.76.38-1.06.69-.3.3-.54.66-.7 1.06-.14.38-.24.82-.27 1.46-.03.64-.04.84-.04 2.47 0 1.63 0 1.83.04 2.47.03.64.13 1.08.27 1.46.16.4.4.76.7 1.06.3.3.66.54 1.06.7.38.14.82.24 1.46.27.64.03.84.04 2.47.04 1.63 0 1.83 0 2.47-.04a4.43 4.43 0 0 0 1.46-.28c.4-.15.76-.38 1.06-.69.3-.3.54-.66.7-1.06.14-.38.24-.82.27-1.46.03-.64.04-.84.04-2.47 0-1.63 0-1.83-.04-2.47a4.43 4.43 0 0 0-.27-1.46c-.16-.4-.4-.76-.7-1.06a2.93 2.93 0 0 0-1.06-.7 4.42 4.42 0 0 0-1.46-.27Zm-4.6 3.84a3 3 0 1 1 4.25 4.24 3 3 0 0 1-4.24-4.24Zm5.81-1.56a.75.75 0 1 1-1.06 1.06.75.75 0 0 1 1.06-1.06Zm-2.4 2.4a1.8 1.8 0 1 0-2.55 2.55 1.8 1.8 0 0 0 2.54-2.54Z" fill="#FCFCFC"/><path d="M94 24a10 10 0 0 1-10-10h-4a14 14 0 0 0 14 14v-4Zm10-10a10 10 0 0 1-10 10v4a14 14 0 0 0 14-14h-4ZM94 4a10 10 0 0 1 10 10h4A14 14 0 0 0 94 0v4Zm0-4a14 14 0 0 0-14 14h4A10 10 0 0 1 94 4V0Z" fill="#FCFCFC" fill-opacity=".2"/><path fill-rule="evenodd" clip-rule="evenodd" d="M66 14a12 12 0 1 1-24 0 12 12 0 0 1 24 0Zm-9.57.9H55V20h-2.29v-5.1H51v-2.4h1.71v-1.68c0-1.83 1.1-2.82 2.66-2.82.74 0 1.44.06 1.63.08v2.02h-.86c-1.14 0-1.14.58-1.14 1.2v1.2h2l-.57 2.4Z" fill="#FCFCFC"/><path d="M54 24a10 10 0 0 1-10-10h-4a14 14 0 0 0 14 14v-4Zm10-10a10 10 0 0 1-10 10v4a14 14 0 0 0 14-14h-4ZM54 4a10 10 0 0 1 10 10h4A14 14 0 0 0 54 0v4Zm0-4a14 14 0 0 0-14 14h4A10 10 0 0 1 54 4V0Z" fill="#FCFCFC" fill-opacity=".2"/><path fill-rule="evenodd" clip-rule="evenodd" d="M26 14a12 12 0 1 1-24 0 12 12 0 0 1 24 0Zm-11.41 2.97h-.72s-1.58.09-2.98-1.18c-1.52-1.39-2.86-4.14-2.86-4.14s-.07-.18 0-.27c.1-.1.36-.1.36-.1l1.72-.01s.16.02.27.1c.1.05.15.17.15.17s.28.61.65 1.17c.71 1.08 1.05 1.32 1.29 1.2.35-.16.25-1.53.25-1.53s0-.5-.18-.71c-.14-.17-.41-.22-.53-.24-.1-.01.06-.2.26-.3.31-.13.86-.13 1.5-.13.5 0 .65.03.84.07.46.1.44.41.41 1.08l-.02.7v.18c-.01.34-.02.73.23.88.13.07.45 0 1.26-1.19.38-.56.66-1.23.66-1.23s.07-.12.16-.17c.1-.05.24-.04.24-.04h1.8s.54-.06.63.15c.1.23-.2.75-.94 1.61-.7.82-1.03 1.12-1 1.38.01.2.23.38.66.72.89.73 1.13 1.1 1.18 1.2l.01.01c.4.58-.44.62-.44.62l-1.6.02s-.34.06-.8-.2a3.94 3.94 0 0 1-.69-.6c-.33-.34-.65-.66-.91-.58-.45.12-.44.96-.44.96s0 .18-.1.28c-.1.1-.32.12-.32.12Z" fill="#FCFCFC"/><path d="M14 24A10 10 0 0 1 4 14H0a14 14 0 0 0 14 14v-4Zm10-10a10 10 0 0 1-10 10v4a14 14 0 0 0 14-14h-4ZM14 4a10 10 0 0 1 10 10h4A14 14 0 0 0 14 0v4Zm0-4A14 14 0 0 0 0 14h4A10 10 0 0 1 14 4V0Z" fill="#FCFCFC" fill-opacity=".2"/></svg>